<svg width="429" height="309" viewBox="0 0 429 309" fill="none" xmlns="http://www.w3.org/2000/svg">
<g clip-path="url(#clip0_199:179)">
<path d="M98.0554 92.5612C98.9633 93.1266 99.8548 93.7026 100.745 94.2973C110.148 117.98 115.516 143.073 116.627 168.533C116.764 171.477 116.834 174.417 116.836 177.352C116.917 199.364 113.717 221.264 107.342 242.33C107.006 243.439 106.662 244.544 106.311 245.644C106.06 246.433 105.803 247.23 105.526 248.014C105.23 248.415 104.939 248.809 104.649 249.203C104.628 249.221 104.61 249.25 104.589 249.268C104.472 249.427 104.355 249.586 104.25 249.742C103.747 250.418 103.236 251.089 102.734 251.765L103.157 251.794L104.219 251.861L104.214 251.868C103.858 251.861 103.494 251.849 103.135 251.83C103.004 251.83 102.862 251.833 102.729 251.822C102.61 251.82 102.484 251.813 102.365 251.81C87.0581 251.395 71.3935 250.631 57.4646 244.364C42.8855 237.8 30.5186 223.607 31.147 207.622C31.2355 205.529 31.5528 203.451 32.0933 201.427C32.3189 200.581 32.5855 199.751 32.8712 198.922C34.6097 193.846 37.6671 189.326 41.7291 185.826C45.791 182.326 50.7108 179.972 55.9828 179.006C61.2547 178.04 66.6886 178.497 71.7256 180.33C76.7626 182.163 81.2211 185.306 84.6425 189.436C80.4644 172.998 62.5275 164.61 46.3721 159.51C30.205 154.414 12.0154 149.082 3.75572 134.272C-0.855806 126.03 -0.966842 116.427 2.04224 107.559C2.13385 107.294 2.23007 107.022 2.3335 106.754C6.12328 96.3206 13.7061 87.703 23.5668 82.6231C42.0422 73.4659 64.492 76.6969 83.4224 84.8701C88.4872 87.0599 93.3789 89.6309 98.0554 92.5612Z" fill="#F2F2F2"/>
<path d="M45.1014 198.99C59.6231 200.326 73.33 206.304 84.1958 216.041C93.45 224.426 100.279 235.151 103.965 247.089C104.179 247.772 104.375 248.454 104.558 249.138C104.925 248.439 105.281 247.724 105.634 247.016C105.86 246.563 106.092 246.102 106.311 245.644C106.059 246.434 105.803 247.231 105.526 248.014C105.23 248.415 104.939 248.81 104.649 249.204C104.628 249.221 104.61 249.25 104.589 249.268C104.472 249.427 104.355 249.586 104.25 249.742C103.747 250.418 103.236 251.089 102.733 251.765L103.157 251.794L104.219 251.861L104.214 251.868C103.858 251.861 103.494 251.849 103.135 251.83C103.004 251.831 102.862 251.834 102.729 251.822C102.685 251.615 102.629 251.41 102.574 251.205C98.8113 235.787 89.6017 222.252 76.6463 213.102C63.6909 203.952 47.8654 199.805 32.0933 201.427C32.3189 200.581 32.5855 199.751 32.8711 198.922C36.9421 198.588 41.0344 198.611 45.1014 198.99Z" fill="white"/>
<path d="M93.3507 138.189C99.1774 142.559 104.335 147.757 108.66 153.62C110.914 156.746 112.872 160.074 114.509 163.563C115.285 165.182 115.991 166.849 116.627 168.533C116.764 171.477 116.834 174.417 116.836 177.352C116.296 175.133 115.638 172.945 114.864 170.796C114.462 169.616 114.015 168.46 113.54 167.317C108.216 154.513 98.5687 144.403 87.1911 136.717C74.9992 128.493 61.2543 122.319 47.3248 117.728C33.0493 113.002 18.2488 110.045 3.25449 108.923C2.91586 108.896 2.60085 108.739 2.37506 108.485C2.14928 108.231 2.03011 107.899 2.04236 107.559C2.03085 107.263 2.13536 106.974 2.33362 106.754C2.43896 106.651 2.56701 106.574 2.70752 106.529C2.84802 106.484 2.99707 106.473 3.14265 106.496C4.99301 106.635 6.83857 106.781 8.68403 106.977C24.0393 108.56 39.1382 112.049 53.6331 117.364C67.6258 122.475 81.4741 129.103 93.3507 138.189Z" fill="white"/>
<path d="M17.2676 67.3757C20.1022 67.3757 22.4 65.0754 22.4 62.2378C22.4 59.4002 20.1022 57.0999 17.2676 57.0999C14.4331 57.0999 12.1353 59.4002 12.1353 62.2378C12.1353 65.0754 14.4331 67.3757 17.2676 67.3757Z" fill="#F2F2F2"/>
<path d="M332.568 109.669H99.5894V308.322H332.568V109.669Z" fill="white"/>
<path d="M333.246 309H98.9121V108.991H333.246V309ZM100.267 307.644H331.891V110.347H100.267V307.644Z" fill="#3F3D56"/>
<path d="M245.201 148.315H186.956V308.322H245.201V148.315Z" fill="#3483B4"/>
<path d="M245.201 148.315H186.956V308.322H245.201V148.315Z" fill="#3483B4"/>
<path opacity="0.2" d="M100.266 124.246V156.477L332.568 171.367L331.883 131.597L100.266 124.246Z" fill="black"/>
<path d="M346.114 91.3635H86.0439V148.315H346.114V91.3635Z" fill="white"/>
<path d="M346.791 148.993H85.3667V90.6855H346.791V148.993ZM86.7212 147.637H345.436V92.0415H86.7212V147.637Z" fill="#3F3D56"/>
<path d="M245.201 85.9395H186.956V147.637H245.201V85.9395Z" fill="#3483B4"/>
<path d="M209.843 32.1449C225.218 54.9605 210.732 91.6562 210.732 91.6562C210.732 91.6562 171.318 91.3605 155.943 68.5448C140.568 45.7292 155.054 9.03345 155.054 9.03345C155.054 9.03345 194.468 9.32923 209.843 32.1449Z" fill="#3483B4"/>
<path d="M216.897 32.1449C201.522 54.9605 216.008 91.6562 216.008 91.6562C216.008 91.6562 255.421 91.3605 270.796 68.5448C286.171 45.7292 271.685 9.03345 271.685 9.03345C271.685 9.03345 232.272 9.32923 216.897 32.1449Z" fill="#3483B4"/>
<path d="M175.443 49.3277C178.809 49.3277 181.538 46.5958 181.538 43.2257C181.538 39.8557 178.809 37.1238 175.443 37.1238C172.077 37.1238 169.348 39.8557 169.348 43.2257C169.348 46.5958 172.077 49.3277 175.443 49.3277Z" fill="#3F3D56"/>
<path d="M212.015 111.025C215.382 111.025 218.111 108.293 218.111 104.923C218.111 101.553 215.382 98.8215 212.015 98.8215C208.649 98.8215 205.92 101.553 205.92 104.923C205.92 108.293 208.649 111.025 212.015 111.025Z" fill="#3F3D56"/>
<path d="M212.015 244.59C215.382 244.59 218.111 241.858 218.111 238.488C218.111 235.118 215.382 232.386 212.015 232.386C208.649 232.386 205.92 235.118 205.92 238.488C205.92 241.858 208.649 244.59 212.015 244.59Z" fill="#3F3D56"/>
<path d="M191.697 69.6677C193.941 69.6677 195.761 67.8464 195.761 65.5997C195.761 63.353 193.941 61.5317 191.697 61.5317C189.453 61.5317 187.634 63.353 187.634 65.5997C187.634 67.8464 189.453 69.6677 191.697 69.6677Z" fill="#3F3D56"/>
<path d="M252.651 35.0898C254.895 35.0898 256.715 33.2685 256.715 31.0218C256.715 28.7752 254.895 26.9539 252.651 26.9539C250.407 26.9539 248.587 28.7752 248.587 31.0218C248.587 33.2685 250.407 35.0898 252.651 35.0898Z" fill="#3F3D56"/>
<path d="M226.238 130.687C228.482 130.687 230.301 128.866 230.301 126.619C230.301 124.373 228.482 122.551 226.238 122.551C223.993 122.551 222.174 124.373 222.174 126.619C222.174 128.866 223.993 130.687 226.238 130.687Z" fill="#3F3D56"/>
<path d="M201.856 183.571C204.1 183.571 205.92 181.749 205.92 179.503C205.92 177.256 204.1 175.435 201.856 175.435C199.612 175.435 197.792 177.256 197.792 179.503C197.792 181.749 199.612 183.571 201.856 183.571Z" fill="#3F3D56"/>
<path d="M222.851 201.877C225.096 201.877 226.915 200.055 226.915 197.809C226.915 195.562 225.096 193.741 222.851 193.741C220.607 193.741 218.788 195.562 218.788 197.809C218.788 200.055 220.607 201.877 222.851 201.877Z" fill="#3F3D56"/>
<path d="M218.11 278.49C220.355 278.49 222.174 276.669 222.174 274.422C222.174 272.176 220.355 270.354 218.11 270.354C215.866 270.354 214.047 272.176 214.047 274.422C214.047 276.669 215.866 278.49 218.11 278.49Z" fill="#3F3D56"/>
<path d="M421.432 202.939H297.468V308.639H421.432V202.939Z" fill="white"/>
<path d="M421.793 309H297.108V202.579H421.793V309ZM297.829 308.279H421.072V203.3H297.829V308.279Z" fill="#3F3D56"/>
<path d="M374.946 223.502H343.955V308.639H374.946V223.502Z" fill="#3483B4"/>
<path d="M374.946 223.502H343.955V308.639H374.946V223.502Z" fill="#3483B4"/>
<path opacity="0.2" d="M297.829 210.696V227.845L421.433 235.767L421.068 214.607L297.829 210.696Z" fill="black"/>
<path d="M428.64 193.199H290.261V223.502H428.64V193.199Z" fill="white"/>
<path d="M429 223.863H289.901V192.839H429V223.863ZM290.621 223.142H428.279V193.56H290.621V223.142Z" fill="#3F3D56"/>
<path d="M374.946 190.313H343.955V223.141H374.946V190.313Z" fill="#3483B4"/>
<path d="M356.132 161.69C364.313 173.83 356.605 193.355 356.605 193.355C356.605 193.355 335.634 193.198 327.453 181.058C319.272 168.918 326.98 149.393 326.98 149.393C326.98 149.393 347.951 149.55 356.132 161.69Z" fill="#3483B4"/>
<path d="M359.885 161.69C351.705 173.83 359.412 193.355 359.412 193.355C359.412 193.355 380.384 193.198 388.565 181.058C396.745 168.918 389.037 149.393 389.037 149.393C389.037 149.393 368.066 149.55 359.885 161.69Z" fill="#3483B4"/>
<path d="M337.829 170.833C339.62 170.833 341.072 169.379 341.072 167.586C341.072 165.793 339.62 164.339 337.829 164.339C336.037 164.339 334.585 165.793 334.585 167.586C334.585 169.379 336.037 170.833 337.829 170.833Z" fill="#3F3D56"/>
<path d="M357.288 203.661C359.079 203.661 360.531 202.207 360.531 200.414C360.531 198.621 359.079 197.167 357.288 197.167C355.497 197.167 354.045 198.621 354.045 200.414C354.045 202.207 355.497 203.661 357.288 203.661Z" fill="#3F3D56"/>
<path d="M357.288 274.729C359.079 274.729 360.531 273.275 360.531 271.482C360.531 269.689 359.079 268.235 357.288 268.235C355.497 268.235 354.045 269.689 354.045 271.482C354.045 273.275 355.497 274.729 357.288 274.729Z" fill="#3F3D56"/>
<path d="M346.477 181.655C347.672 181.655 348.64 180.686 348.64 179.491C348.64 178.295 347.672 177.326 346.477 177.326C345.283 177.326 344.315 178.295 344.315 179.491C344.315 180.686 345.283 181.655 346.477 181.655Z" fill="#3F3D56"/>
<path d="M378.91 163.257C380.104 163.257 381.072 162.288 381.072 161.092C381.072 159.897 380.104 158.928 378.91 158.928C377.716 158.928 376.748 159.897 376.748 161.092C376.748 162.288 377.716 163.257 378.91 163.257Z" fill="#3F3D56"/>
<path d="M364.856 214.123C366.05 214.123 367.018 213.154 367.018 211.958C367.018 210.763 366.05 209.794 364.856 209.794C363.661 209.794 362.693 210.763 362.693 211.958C362.693 213.154 363.661 214.123 364.856 214.123Z" fill="#3F3D56"/>
<path d="M351.883 242.261C353.077 242.261 354.045 241.292 354.045 240.097C354.045 238.901 353.077 237.932 351.883 237.932C350.688 237.932 349.72 238.901 349.72 240.097C349.72 241.292 350.688 242.261 351.883 242.261Z" fill="#3F3D56"/>
<path d="M363.054 252.002C364.248 252.002 365.216 251.033 365.216 249.837C365.216 248.642 364.248 247.673 363.054 247.673C361.86 247.673 360.892 248.642 360.892 249.837C360.892 251.033 361.86 252.002 363.054 252.002Z" fill="#3F3D56"/>
<path d="M360.531 292.766C361.725 292.766 362.693 291.797 362.693 290.602C362.693 289.406 361.725 288.437 360.531 288.437C359.337 288.437 358.369 289.406 358.369 290.602C358.369 291.797 359.337 292.766 360.531 292.766Z" fill="#3F3D56"/>
<path d="M208.131 259.941C209.214 257.654 204.193 252.999 196.916 249.544C189.638 246.088 182.86 245.141 181.777 247.428C180.693 249.716 185.714 254.371 192.992 257.826C200.269 261.281 207.047 262.228 208.131 259.941Z" fill="#2F2E41"/>
<path d="M268.192 283.498C270.131 281.873 267.511 275.544 262.34 269.362C257.17 263.179 251.406 259.485 249.468 261.11C247.529 262.735 250.149 269.064 255.32 275.246C260.49 281.428 266.254 285.123 268.192 283.498Z" fill="#2F2E41"/>
<path d="M227.807 296.433C243.916 296.433 256.975 283.36 256.975 267.234C256.975 251.107 243.916 238.034 227.807 238.034C211.698 238.034 198.639 251.107 198.639 267.234C198.639 283.36 211.698 296.433 227.807 296.433Z" fill="#2F2E41"/>
<path d="M240.152 290.15H231.291V306.043H240.152V290.15Z" fill="#2F2E41"/>
<path d="M222.43 290.15H213.569V306.043H222.43V290.15Z" fill="#2F2E41"/>
<path d="M232.768 309C236.846 309 240.152 307.759 240.152 306.228C240.152 304.697 236.846 303.456 232.768 303.456C228.69 303.456 225.384 304.697 225.384 306.228C225.384 307.759 228.69 309 232.768 309Z" fill="#2F2E41"/>
<path d="M215.046 308.63C219.124 308.63 222.43 307.389 222.43 305.858C222.43 304.327 219.124 303.086 215.046 303.086C210.967 303.086 207.661 304.327 207.661 305.858C207.661 307.389 210.967 308.63 215.046 308.63Z" fill="#2F2E41"/>
<path d="M218.648 230.529C221.253 220.029 232.749 213.85 244.326 216.728C255.904 219.606 263.178 230.451 260.573 240.951C257.969 251.451 249.328 251.485 237.751 248.607C226.173 245.729 216.044 241.029 218.648 230.529Z" fill="#E6E6E6"/>
<path d="M223.446 270.808C228.817 270.808 233.17 266.449 233.17 261.072C233.17 255.696 228.817 251.337 223.446 251.337C218.075 251.337 213.721 255.696 213.721 261.072C213.721 266.449 218.075 270.808 223.446 270.808Z" fill="white"/>
<path d="M219.449 260.828C221.239 260.828 222.691 259.375 222.691 257.583C222.691 255.791 221.239 254.338 219.449 254.338C217.659 254.338 216.208 255.791 216.208 257.583C216.208 259.375 217.659 260.828 219.449 260.828Z" fill="#3F3D56"/>
<path d="M229.546 281.355C229.699 282.194 229.685 283.054 229.505 283.887C229.325 284.72 228.983 285.51 228.499 286.211C228.015 286.911 227.397 287.51 226.681 287.972C225.966 288.434 225.167 288.75 224.329 288.903C223.491 289.055 222.632 289.041 221.8 288.861C220.968 288.682 220.179 288.339 219.479 287.854C218.779 287.369 218.181 286.751 217.72 286.035C217.258 285.319 216.942 284.518 216.79 283.68L216.787 283.667C216.15 280.14 218.874 278.892 222.397 278.254C225.92 277.615 228.908 277.828 229.546 281.355Z" fill="white"/>
<path d="M286.778 47.3234C294.222 44.2452 299.475 39.8533 298.509 37.5137C297.544 35.1741 290.726 35.7729 283.282 38.851C275.837 41.9292 270.585 46.3212 271.55 48.6607C272.516 51.0003 279.333 50.4016 286.778 47.3234Z" fill="#2F2E41"/>
<path d="M358.269 67.4762C360.207 65.8512 357.587 59.5221 352.417 53.3398C347.246 47.1574 341.483 43.463 339.544 45.088C337.605 46.713 340.225 53.042 345.396 59.2244C350.567 65.4068 356.33 69.1012 358.269 67.4762Z" fill="#2F2E41"/>
<path d="M317.883 80.4116C333.992 80.4116 347.051 67.3386 347.051 51.2121C347.051 35.0857 333.992 22.0127 317.883 22.0127C301.774 22.0127 288.715 35.0857 288.715 51.2121C288.715 67.3386 301.774 80.4116 317.883 80.4116Z" fill="#2F2E41"/>
<path d="M330.228 74.1279H321.367V90.0213H330.228V74.1279Z" fill="#2F2E41"/>
<path d="M312.506 74.1279H303.645V90.0213H312.506V74.1279Z" fill="#2F2E41"/>
<path d="M322.844 92.9783C326.923 92.9783 330.229 91.7372 330.229 90.2062C330.229 88.6752 326.923 87.4341 322.844 87.4341C318.766 87.4341 315.46 88.6752 315.46 90.2062C315.46 91.7372 318.766 92.9783 322.844 92.9783Z" fill="#2F2E41"/>
<path d="M305.122 92.6087C309.2 92.6087 312.506 91.3675 312.506 89.8366C312.506 88.3056 309.2 87.0645 305.122 87.0645C301.044 87.0645 297.738 88.3056 297.738 89.8366C297.738 91.3675 301.044 92.6087 305.122 92.6087Z" fill="#2F2E41"/>
<path d="M308.724 14.5075C311.329 4.00737 322.825 -2.17172 334.403 0.706101C345.98 3.58392 353.254 14.4289 350.649 24.929C348.045 35.4291 339.404 35.463 327.827 32.5852C316.249 29.7074 306.12 25.0076 308.724 14.5075Z" fill="#3483B4"/>
<path d="M313.522 54.7859C318.893 54.7859 323.247 50.4273 323.247 45.0508C323.247 39.6742 318.893 35.3157 313.522 35.3157C308.151 35.3157 303.797 39.6742 303.797 45.0508C303.797 50.4273 308.151 54.7859 313.522 54.7859Z" fill="white"/>
<path d="M309.525 49.5523C311.315 49.5523 312.767 48.0995 312.767 46.3073C312.767 44.5151 311.315 43.0623 309.525 43.0623C307.735 43.0623 306.284 44.5151 306.284 46.3073C306.284 48.0995 307.735 49.5523 309.525 49.5523Z" fill="#3F3D56"/>
<path d="M319.623 65.3331C319.931 67.0266 319.554 68.7731 318.575 70.1886C317.597 71.604 316.097 72.5724 314.405 72.8807C312.714 73.1889 310.969 72.8119 309.555 71.8324C308.141 70.8529 307.174 69.3513 306.866 67.6579L306.864 67.6453C306.226 64.1183 308.95 62.8702 312.473 62.2317C315.997 61.5932 318.985 61.8062 319.623 65.3331Z" fill="white"/>
<path d="M68.3257 296.433C84.4347 296.433 97.4937 283.36 97.4937 267.234C97.4937 251.107 84.4347 238.034 68.3257 238.034C52.2167 238.034 39.1577 251.107 39.1577 267.234C39.1577 283.36 52.2167 296.433 68.3257 296.433Z" fill="#2F2E41"/>
<path d="M63.8948 290.15H55.0337V306.043H63.8948V290.15Z" fill="#2F2E41"/>
<path d="M81.6175 290.15H72.7563V306.043H81.6175V290.15Z" fill="#2F2E41"/>
<path d="M62.418 309C66.4962 309 69.8023 307.759 69.8023 306.228C69.8023 304.697 66.4962 303.456 62.418 303.456C58.3398 303.456 55.0337 304.697 55.0337 306.228C55.0337 307.759 58.3398 309 62.418 309Z" fill="#2F2E41"/>
<path d="M80.1407 308.63C84.2189 308.63 87.525 307.389 87.525 305.858C87.525 304.327 84.2189 303.086 80.1407 303.086C76.0624 303.086 72.7563 304.327 72.7563 305.858C72.7563 307.389 76.0624 308.63 80.1407 308.63Z" fill="#2F2E41"/>
<path d="M40.0318 240.079C37.6766 229.52 45.2052 218.851 56.8474 216.248C68.4895 213.646 79.8366 220.096 82.1918 230.655C84.5469 241.214 76.8313 245.108 65.1891 247.711C53.547 250.313 42.387 250.638 40.0318 240.079Z" fill="#3483B4"/>
<path d="M99.7572 254.474C106.074 248.146 109.586 241.406 107.601 239.421C105.617 237.436 98.8873 240.957 92.5704 247.285C86.2536 253.614 82.7416 260.353 84.7262 262.338C86.7108 264.324 93.4404 260.803 99.7572 254.474Z" fill="#2F2E41"/>
<path d="M44.8154 264.372C46.7999 262.387 43.2879 255.648 36.9711 249.319C30.6543 242.991 23.9246 239.47 21.9401 241.455C19.9555 243.44 23.4675 250.18 29.7843 256.508C36.1012 262.837 42.8308 266.358 44.8154 264.372Z" fill="#2F2E41"/>
<path d="M67.0982 273.075C72.6038 273.075 77.067 268.607 77.067 263.096C77.067 257.584 72.6038 253.116 67.0982 253.116C61.5926 253.116 57.1294 257.584 57.1294 263.096C57.1294 268.607 61.5926 273.075 67.0982 273.075Z" fill="white"/>
<path d="M67.0983 266.422C68.9336 266.422 70.4213 264.933 70.4213 263.096C70.4213 261.259 68.9336 259.769 67.0983 259.769C65.2631 259.769 63.7754 261.259 63.7754 263.096C63.7754 264.933 65.2631 266.422 67.0983 266.422Z" fill="#3F3D56"/>
<path d="M75.012 281.552C75.1645 282.391 75.1505 283.251 74.9708 284.084C74.7912 284.917 74.4494 285.707 73.9649 286.408C73.4805 287.109 72.8628 287.707 72.1473 288.169C71.4318 288.631 70.6325 288.947 69.7949 289.1C68.9573 289.253 68.0978 289.239 67.2656 289.059C66.4335 288.879 65.6448 288.537 64.9447 288.052C64.2446 287.567 63.6468 286.948 63.1854 286.232C62.7239 285.516 62.408 284.716 62.2555 283.877L62.2532 283.865C61.6154 280.338 64.3395 279.089 67.8627 278.451C71.3859 277.812 74.3742 278.025 75.012 281.552Z" fill="white"/>
</g>
<defs>
<clipPath id="clip0_199:179">
<rect width="429" height="309" fill="white"/>
</clipPath>
</defs>
</svg>
