<svg width="335" height="321" viewBox="0 0 335 321" fill="none" xmlns="http://www.w3.org/2000/svg">
<g clip-path="url(#clip0_199:302)">
<path d="M10.9585 198.516C10.9065 198.455 10.8697 198.382 10.8509 198.304C3.85589 169.371 5.03194 139.06 14.2476 110.757C23.4633 82.4547 40.3556 57.2755 63.0373 38.0328C85.719 18.7901 113.297 6.24179 142.689 1.78985C172.082 -2.66209 202.132 1.15767 229.482 12.8224C229.543 12.8487 229.599 12.8869 229.646 12.9349C229.693 12.9829 229.731 13.0396 229.756 13.102C229.781 13.1643 229.793 13.231 229.793 13.2982C229.792 13.3654 229.778 13.4319 229.752 13.4937C229.726 13.5556 229.688 13.6117 229.64 13.6588C229.592 13.7059 229.535 13.743 229.473 13.7682C229.411 13.7933 229.344 13.806 229.277 13.8053C229.21 13.8047 229.143 13.7908 229.082 13.7645C173.126 -10.0625 109.632 -0.351939 63.3775 39.1068C17.4051 78.3246 -2.34098 139.233 11.845 198.064C11.872 198.176 11.8606 198.294 11.8125 198.398C11.7644 198.503 11.6825 198.588 11.58 198.64C11.4775 198.693 11.3604 198.709 11.2476 198.686C11.1348 198.663 11.033 198.603 10.9585 198.516Z" fill="#E6E6E6"/>
<path d="M104.411 308.378C104.337 308.29 104.294 308.18 104.289 308.065C104.285 307.95 104.319 307.836 104.387 307.743C104.455 307.65 104.552 307.583 104.663 307.552C104.774 307.521 104.892 307.529 104.998 307.573C160.743 330.952 223.931 321.112 269.905 281.894C316.595 242.064 336.422 180.838 321.649 122.11C321.633 122.045 321.63 121.977 321.639 121.91C321.649 121.844 321.672 121.78 321.706 121.722C321.741 121.664 321.786 121.614 321.84 121.574C321.894 121.534 321.955 121.505 322.021 121.488C322.086 121.472 322.153 121.469 322.22 121.478C322.286 121.488 322.35 121.511 322.408 121.546C322.465 121.58 322.516 121.626 322.556 121.68C322.596 121.734 322.625 121.795 322.641 121.86C329.81 150.398 328.901 180.371 320.016 208.421C310.817 237.328 293.681 263.059 270.568 282.673C248 301.935 220.537 314.55 191.237 319.112C161.936 323.675 131.946 320.007 104.602 308.517C104.529 308.487 104.463 308.439 104.411 308.378Z" fill="#E6E6E6"/>
<path d="M92.5968 317.465C92.5532 317.413 92.5201 317.354 92.4995 317.29C92.4788 317.226 92.4709 317.159 92.4762 317.092C92.4816 317.025 92.5001 316.96 92.5307 316.9C92.5612 316.84 92.6033 316.787 92.6544 316.743L334.157 110.724C334.26 110.636 334.394 110.592 334.529 110.603C334.665 110.614 334.79 110.678 334.878 110.782C334.966 110.885 335.009 111.019 334.998 111.154C334.987 111.29 334.923 111.415 334.82 111.503L93.3175 317.522C93.2664 317.566 93.2072 317.599 93.1433 317.62C93.0794 317.641 93.0121 317.648 92.9452 317.643C92.8782 317.638 92.813 317.619 92.7533 317.589C92.6935 317.558 92.6403 317.516 92.5968 317.465Z" fill="#E6E6E6"/>
<path d="M0.122109 208.754C0.0785587 208.703 0.0455087 208.643 0.0248359 208.58C0.00416315 208.516 -0.00372669 208.448 0.00162699 208.381C0.00698067 208.314 0.0254697 208.249 0.0560342 208.189C0.0865988 208.129 0.128643 208.076 0.179762 208.032L241.683 2.01301C241.786 1.92513 241.92 1.88188 242.055 1.89277C242.19 1.90365 242.315 1.96779 242.403 2.07108C242.491 2.17437 242.534 2.30837 242.523 2.44362C242.512 2.57888 242.449 2.70434 242.346 2.79243L0.842777 208.812C0.79168 208.855 0.732503 208.888 0.668626 208.909C0.604749 208.93 0.537426 208.938 0.4705 208.932C0.403575 208.927 0.338366 208.908 0.278588 208.878C0.21881 208.847 0.165633 208.805 0.122109 208.754Z" fill="#E6E6E6"/>
<path d="M92.5968 317.465C92.5532 317.413 92.5201 317.354 92.4995 317.29C92.4788 317.226 92.4709 317.159 92.4762 317.092C92.4816 317.025 92.5001 316.96 92.5307 316.9C92.5612 316.84 92.6033 316.787 92.6544 316.743L334.157 110.724C334.26 110.636 334.394 110.592 334.529 110.603C334.665 110.614 334.79 110.678 334.878 110.782C334.966 110.885 335.009 111.019 334.998 111.154C334.987 111.29 334.923 111.415 334.82 111.503L93.3175 317.522C93.2664 317.566 93.2072 317.599 93.1433 317.62C93.0794 317.641 93.0121 317.648 92.9452 317.643C92.8782 317.638 92.813 317.619 92.7533 317.589C92.6935 317.558 92.6403 317.516 92.5968 317.465Z" fill="#E6E6E6"/>
<path d="M282.353 84.9138H188.884V84.4237C188.884 84.0421 188.732 83.676 188.463 83.4061C188.193 83.1362 187.828 82.9846 187.447 82.9846H147.938C147.557 82.9846 147.192 83.1362 146.922 83.4061C146.653 83.676 146.501 84.0421 146.501 84.4237V84.9138H52.6469C50.9701 84.9138 49.362 85.5809 48.1763 86.7683C46.9906 87.9557 46.3245 89.5661 46.3245 91.2453V219.415C46.3245 221.095 46.9906 222.705 48.1763 223.892C49.362 225.08 50.9701 225.747 52.6469 225.747H282.353C284.03 225.747 285.638 225.08 286.824 223.892C288.009 222.705 288.675 221.095 288.675 219.415V91.2453C288.675 89.5661 288.009 87.9557 286.824 86.7683C285.638 85.5809 284.03 84.9138 282.353 84.9138Z" fill="#3F3D56"/>
<path d="M57.6751 98.3892C57.5182 98.3894 57.3678 98.4519 57.2569 98.563C57.146 98.6741 57.0837 98.8247 57.0835 98.9818V220.554C57.0837 220.711 57.146 220.862 57.257 220.973C57.3679 221.084 57.5182 221.146 57.6751 221.146H277.325C277.482 221.146 277.632 221.084 277.743 220.973C277.854 220.862 277.916 220.711 277.916 220.554V98.9818C277.916 98.8247 277.854 98.6741 277.743 98.563C277.632 98.4519 277.482 98.3893 277.325 98.3892H57.6751Z" fill="#3483B4"/>
<path d="M167.307 92.6309C168.584 92.6309 169.619 91.5944 169.619 90.3158C169.619 89.0372 168.584 88.0007 167.307 88.0007C166.03 88.0007 164.995 89.0372 164.995 90.3158C164.995 91.5944 166.03 92.6309 167.307 92.6309Z" fill="#3483B4"/>
<path d="M292.885 217.109H270.888V214.834C270.888 214.709 270.747 214.607 270.573 214.607H263.031C262.858 214.607 262.717 214.709 262.717 214.834V217.109H258.003V214.834C258.003 214.709 257.863 214.607 257.689 214.607H250.147C249.974 214.607 249.833 214.709 249.833 214.834V217.109H245.119V214.834C245.119 214.709 244.979 214.607 244.805 214.607H237.263C237.09 214.607 236.949 214.709 236.949 214.834V217.109H232.235V214.834C232.235 214.709 232.094 214.607 231.921 214.607H224.379C224.205 214.607 224.065 214.709 224.065 214.834V217.109H219.351V214.834C219.351 214.709 219.21 214.607 219.037 214.607H211.495C211.321 214.607 211.18 214.709 211.18 214.834V217.109H206.467V214.834C206.467 214.709 206.326 214.607 206.153 214.607H198.611C198.437 214.607 198.296 214.709 198.296 214.834V217.109H193.583V214.834C193.583 214.709 193.442 214.607 193.268 214.607H134.19C134.016 214.607 133.875 214.709 133.875 214.834V217.109H129.162V214.834C129.162 214.709 129.021 214.607 128.847 214.607H121.305C121.132 214.607 120.991 214.709 120.991 214.834V217.109H116.278V214.834C116.278 214.709 116.137 214.607 115.963 214.607H108.421C108.248 214.607 108.107 214.709 108.107 214.834V217.109H103.393V214.834C103.393 214.709 103.253 214.607 103.079 214.607H95.5372C95.3636 214.607 95.2229 214.709 95.2229 214.834V217.109H90.5092V214.834C90.5092 214.709 90.3685 214.607 90.1949 214.607H82.653C82.4794 214.607 82.3387 214.709 82.3387 214.834V217.109H77.625V214.834C77.625 214.709 77.4843 214.607 77.3108 214.607H69.7688C69.5952 214.607 69.4546 214.709 69.4546 214.834V217.109H64.7408V214.834C64.7408 214.709 64.6001 214.607 64.4266 214.607H56.8846C56.7111 214.607 56.5704 214.709 56.5704 214.834V217.109H42.115C37.9496 217.109 34.573 219.539 34.573 222.538V224.993C34.573 227.991 37.9496 230.422 42.115 230.422H292.885C297.05 230.422 300.427 227.991 300.427 224.993V222.538C300.427 219.539 297.05 217.109 292.885 217.109Z" fill="#3F3D56"/>
<path d="M141.927 149.537H77.0032C76.8676 149.537 76.7375 149.483 76.6417 149.387C76.5458 149.291 76.4919 149.16 76.4919 149.025C76.4919 148.889 76.5458 148.759 76.6417 148.663C76.7375 148.567 76.8676 148.513 77.0032 148.513H141.927C142.062 148.513 142.192 148.567 142.288 148.663C142.384 148.759 142.438 148.889 142.438 149.025C142.438 149.16 142.384 149.291 142.288 149.387C142.192 149.483 142.062 149.537 141.927 149.537Z" fill="#F2F2F2"/>
<path d="M141.927 160.799H77.0032C76.8676 160.799 76.7375 160.745 76.6417 160.649C76.5458 160.553 76.4919 160.423 76.4919 160.287C76.4919 160.151 76.5458 160.021 76.6417 159.925C76.7375 159.829 76.8676 159.775 77.0032 159.775H141.927C142.062 159.775 142.192 159.829 142.288 159.925C142.384 160.021 142.438 160.151 142.438 160.287C142.438 160.423 142.384 160.553 142.288 160.649C142.192 160.745 142.062 160.799 141.927 160.799Z" fill="#F2F2F2"/>
<path d="M141.927 172.062H77.0032C76.936 172.062 76.8693 172.049 76.8071 172.023C76.7449 171.998 76.6884 171.96 76.6408 171.912C76.5931 171.865 76.5553 171.808 76.5295 171.746C76.5038 171.684 76.4905 171.617 76.4905 171.55C76.4905 171.482 76.5038 171.416 76.5295 171.354C76.5553 171.291 76.5931 171.235 76.6408 171.187C76.6884 171.14 76.7449 171.102 76.8071 171.076C76.8693 171.051 76.936 171.038 77.0032 171.038H141.927C141.994 171.038 142.061 171.051 142.123 171.076C142.185 171.102 142.242 171.14 142.289 171.187C142.337 171.235 142.375 171.291 142.4 171.354C142.426 171.416 142.44 171.482 142.44 171.55C142.44 171.617 142.426 171.684 142.4 171.746C142.375 171.808 142.337 171.865 142.289 171.912C142.242 171.96 142.185 171.998 142.123 172.023C142.061 172.049 141.994 172.062 141.927 172.062Z" fill="#F2F2F2"/>
<path d="M252.092 120.1H171.832C170.985 120.1 170.299 120.788 170.299 121.636V198.938C170.299 199.786 170.985 200.474 171.832 200.474H252.092C252.939 200.474 253.626 199.786 253.626 198.938V121.636C253.626 120.788 252.939 120.1 252.092 120.1Z" fill="white"/>
<path d="M186.984 162.637C187.259 157.769 189.252 153.156 192.607 149.623C195.961 146.089 200.46 143.863 205.301 143.342C210.142 142.821 215.011 144.039 219.039 146.778C223.067 149.518 225.992 153.6 227.294 158.299C227.543 158.29 227.791 158.28 228.042 158.28C228.899 158.288 229.749 158.433 230.56 158.709C240.779 162.069 238.088 177.349 227.332 177.349H200.897C199.027 177.354 197.176 176.981 195.454 176.253C193.731 175.525 192.173 174.457 190.873 173.111C189.572 171.766 188.557 170.172 187.886 168.424C187.215 166.676 186.904 164.811 186.97 162.94C186.974 162.839 186.979 162.738 186.984 162.637Z" fill="#3483B4"/>
<path d="M211.079 162.316V153.895H206.551V162.316H202.936L205.875 167.415L208.815 172.513L211.754 167.415L214.694 162.316H211.079Z" fill="white"/>
</g>
<defs>
<clipPath id="clip0_199:302">
<rect width="335" height="321" fill="white"/>
</clipPath>
</defs>
</svg>
